# xmcd
#
# Track frame offsets:
# 150
# 23743
# 61839
# 93603
#
# Disc length: 1532 seconds
#
#
# Revision: 0
# Processed by: cddbd v1.5.1PL0 Copyright (c) Steve Scherf et al.
# Submitted via: FreeRIP 2.93 
#
DISCID=2905fa04
DTITLE=Attic45 - Paint The Picture EP
DYEAR=2005
DGENRE=Psychedelic Rock
TTITLE0=Foreign Land
TTITLE1=Dream Weapon
TTITLE2=This Time
TTITLE3=Come Home
EXTD=
EXTT0=
EXTT1=
EXTT2=
EXTT3=
PLAYORDER=
